<svg xmlns="http://www.w3.org/2000/svg" xmlns:xlink="http://www.w3.org/1999/xlink" width="1920" zoomAndPan="magnify" viewBox="0 0 1440 1439.999935" height="1920" preserveAspectRatio="xMidYMid meet" version="1.0"><defs><clipPath id="a425a59e2c"><path d="M 412 90 L 1383.53125 90 L 1383.53125 1390.832031 L 412 1390.832031 Z M 412 90 " clip-rule="nonzero"/></clipPath><clipPath id="ef9011d78d"><path d="M 56.78125 49.082031 L 1383.53125 49.082031 L 1383.53125 1390.832031 L 56.78125 1390.832031 Z M 56.78125 49.082031 " clip-rule="nonzero"/></clipPath></defs><rect x="-144" width="1728" fill="#ffffff" y="-143.999994" height="1727.999922" fill-opacity="1"/><rect x="-144" width="1728" fill="#ffff02" y="-143.999994" height="1727.999922" fill-opacity="1"/><g clip-path="url(#a425a59e2c)"><path fill="#ffff00" d="M 1299.503906 90.75 C 1305.96875 96.847656 1312.398438 102.996094 1318.71875 109.316406 C 1397.628906 188.226562 1459.582031 280.121094 1502.863281 382.433594 C 1547.664062 488.375 1570.398438 600.914062 1570.398438 716.898438 C 1570.398438 832.878906 1547.683594 945.417969 1502.863281 1051.359375 C 1459.582031 1153.6875 1397.628906 1245.570312 1318.71875 1324.476562 C 1239.808594 1403.386719 1147.910156 1465.34375 1045.597656 1508.625 C 939.65625 1553.445312 827.121094 1576.160156 711.136719 1576.160156 C 608.066406 1576.160156 507.738281 1558.167969 412.339844 1522.742188 C 523.632812 1576.546875 648.511719 1606.710938 780.429688 1606.710938 C 1248.144531 1606.710938 1627.296875 1227.558594 1627.296875 759.84375 C 1627.296875 487.765625 1498.957031 245.679688 1299.539062 90.730469 Z M 1299.503906 90.75 " fill-opacity="1" fill-rule="nonzero"/></g><g clip-path="url(#ef9011d78d)"><path fill="#ffff00" d="M 715.359375 -129.953125 C 247.644531 -129.953125 -131.507812 249.199219 -131.507812 716.914062 C -131.507812 1184.628906 247.644531 1563.78125 715.359375 1563.78125 C 1183.074219 1563.78125 1562.226562 1184.628906 1562.226562 716.914062 C 1562.226562 249.199219 1183.058594 -129.953125 715.359375 -129.953125 Z M 715.359375 -129.953125 " fill-opacity="1" fill-rule="nonzero"/></g><path fill="#000000" d="M 727.921875 716.953125 L 951.960938 716.953125 L 951.960938 940.988281 L 727.921875 940.988281 Z M 727.921875 716.953125 " fill-opacity="1" fill-rule="nonzero"/><path fill="#000000" d="M 503.773438 492.804688 C 627.425781 492.804688 727.8125 593.207031 727.8125 716.839844 L 503.773438 716.839844 Z M 503.773438 492.804688 " fill-opacity="1" fill-rule="nonzero"/><path fill="#000000" d="M 503.773438 716.953125 L 374.410156 941.007812 L 633.117188 941.007812 Z M 503.773438 716.953125 " fill-opacity="1" fill-rule="nonzero"/><path fill="#000000" d="M 1064.738281 604.820312 C 1064.738281 606.65625 1064.691406 608.484375 1064.601562 610.316406 C 1064.511719 612.144531 1064.378906 613.972656 1064.199219 615.796875 C 1064.019531 617.621094 1063.796875 619.4375 1063.527344 621.25 C 1063.257812 623.0625 1062.945312 624.867188 1062.585938 626.664062 C 1062.230469 628.460938 1061.828125 630.25 1061.382812 632.027344 C 1060.9375 633.804688 1060.449219 635.570312 1059.917969 637.324219 C 1059.386719 639.078125 1058.8125 640.816406 1058.191406 642.542969 C 1057.574219 644.265625 1056.917969 645.976562 1056.214844 647.667969 C 1055.515625 649.363281 1054.773438 651.035156 1053.988281 652.691406 C 1053.203125 654.347656 1052.382812 655.984375 1051.519531 657.601562 C 1050.652344 659.21875 1049.75 660.8125 1048.808594 662.382812 C 1047.867188 663.953125 1046.886719 665.503906 1045.867188 667.027344 C 1044.851562 668.550781 1043.796875 670.046875 1042.703125 671.519531 C 1041.613281 672.992188 1040.484375 674.433594 1039.324219 675.851562 C 1038.160156 677.265625 1036.964844 678.65625 1035.734375 680.011719 C 1034.503906 681.371094 1033.242188 682.695312 1031.945312 683.992188 C 1030.648438 685.289062 1029.324219 686.550781 1027.964844 687.78125 C 1026.605469 689.011719 1025.21875 690.207031 1023.804688 691.371094 C 1022.386719 692.535156 1020.941406 693.660156 1019.472656 694.753906 C 1018 695.84375 1016.5 696.898438 1014.976562 697.917969 C 1013.453125 698.933594 1011.90625 699.914062 1010.335938 700.855469 C 1008.765625 701.796875 1007.171875 702.703125 1005.554688 703.566406 C 1003.9375 704.429688 1002.300781 705.253906 1000.644531 706.035156 C 998.988281 706.820312 997.3125 707.5625 995.621094 708.261719 C 993.929688 708.964844 992.21875 709.625 990.496094 710.242188 C 988.769531 710.859375 987.03125 711.433594 985.277344 711.964844 C 983.523438 712.496094 981.757812 712.984375 979.980469 713.429688 C 978.203125 713.875 976.414062 714.277344 974.617188 714.632812 C 972.820312 714.992188 971.015625 715.304688 969.203125 715.574219 C 967.390625 715.84375 965.574219 716.066406 963.75 716.246094 C 961.925781 716.425781 960.097656 716.5625 958.269531 716.652344 C 956.4375 716.742188 954.605469 716.785156 952.773438 716.785156 C 950.941406 716.785156 949.109375 716.742188 947.28125 716.652344 C 945.449219 716.5625 943.625 716.425781 941.800781 716.246094 C 939.976562 716.066406 938.160156 715.84375 936.347656 715.574219 C 934.535156 715.304688 932.730469 714.992188 930.933594 714.632812 C 929.132812 714.277344 927.347656 713.875 925.570312 713.429688 C 923.792969 712.984375 922.027344 712.496094 920.273438 711.964844 C 918.519531 711.433594 916.78125 710.859375 915.054688 710.242188 C 913.332031 709.625 911.621094 708.964844 909.929688 708.261719 C 908.234375 707.5625 906.5625 706.820312 904.90625 706.035156 C 903.246094 705.253906 901.613281 704.429688 899.996094 703.566406 C 898.378906 702.703125 896.785156 701.796875 895.214844 700.855469 C 893.640625 699.914062 892.09375 698.933594 890.570312 697.917969 C 889.046875 696.898438 887.550781 695.84375 886.078125 694.753906 C 884.605469 693.660156 883.164062 692.535156 881.746094 691.371094 C 880.328125 690.207031 878.941406 689.011719 877.585938 687.78125 C 876.226562 686.550781 874.902344 685.289062 873.605469 683.992188 C 872.308594 682.695312 871.046875 681.371094 869.816406 680.011719 C 868.585938 678.65625 867.390625 677.265625 866.226562 675.851562 C 865.0625 674.433594 863.9375 672.992188 862.84375 671.519531 C 861.753906 670.046875 860.699219 668.550781 859.679688 667.027344 C 858.664062 665.503906 857.683594 663.953125 856.742188 662.382812 C 855.796875 660.8125 854.894531 659.21875 854.03125 657.601562 C 853.167969 655.984375 852.34375 654.347656 851.5625 652.691406 C 850.777344 651.035156 850.035156 649.363281 849.335938 647.667969 C 848.632812 645.976562 847.972656 644.265625 847.355469 642.542969 C 846.738281 640.816406 846.164062 639.078125 845.632812 637.324219 C 845.101562 635.570312 844.613281 633.804688 844.167969 632.027344 C 843.722656 630.25 843.320312 628.460938 842.960938 626.664062 C 842.605469 624.867188 842.292969 623.0625 842.023438 621.25 C 841.753906 619.4375 841.53125 617.621094 841.351562 615.796875 C 841.171875 613.972656 841.035156 612.144531 840.945312 610.316406 C 840.855469 608.484375 840.8125 606.65625 840.8125 604.820312 C 840.8125 602.988281 840.855469 601.160156 840.945312 599.328125 C 841.035156 597.5 841.171875 595.671875 841.351562 593.847656 C 841.53125 592.023438 841.753906 590.207031 842.023438 588.394531 C 842.292969 586.582031 842.605469 584.777344 842.960938 582.980469 C 843.320312 581.183594 843.722656 579.394531 844.167969 577.617188 C 844.613281 575.839844 845.101562 574.074219 845.632812 572.320312 C 846.164062 570.566406 846.738281 568.828125 847.355469 567.101562 C 847.972656 565.378906 848.632812 563.667969 849.335938 561.976562 C 850.035156 560.28125 850.777344 558.609375 851.5625 556.953125 C 852.34375 555.296875 853.167969 553.660156 854.03125 552.042969 C 854.894531 550.425781 855.796875 548.832031 856.742188 547.261719 C 857.683594 545.691406 858.664062 544.140625 859.679688 542.617188 C 860.699219 541.09375 861.753906 539.597656 862.84375 538.125 C 863.9375 536.652344 865.0625 535.210938 866.226562 533.792969 C 867.386719 532.378906 868.585938 530.988281 869.816406 529.632812 C 871.046875 528.273438 872.308594 526.949219 873.605469 525.652344 C 874.902344 524.355469 876.226562 523.09375 877.585938 521.863281 C 878.941406 520.632812 880.328125 519.4375 881.746094 518.273438 C 883.164062 517.109375 884.605469 515.984375 886.078125 514.890625 C 887.550781 513.800781 889.046875 512.746094 890.570312 511.726562 C 892.09375 510.710938 893.644531 509.730469 895.214844 508.789062 C 896.785156 507.847656 898.378906 506.941406 899.996094 506.078125 C 901.613281 505.214844 903.25 504.390625 904.90625 503.609375 C 906.5625 502.824219 908.234375 502.082031 909.929688 501.382812 C 911.621094 500.679688 913.332031 500.019531 915.054688 499.402344 C 916.78125 498.785156 918.519531 498.210938 920.273438 497.679688 C 922.027344 497.148438 923.792969 496.660156 925.570312 496.214844 C 927.347656 495.769531 929.132812 495.367188 930.933594 495.011719 C 932.730469 494.652344 934.535156 494.339844 936.347656 494.070312 C 938.160156 493.800781 939.976562 493.578125 941.800781 493.398438 C 943.625 493.21875 945.449219 493.082031 947.28125 492.992188 C 949.109375 492.902344 950.941406 492.859375 952.773438 492.859375 C 954.605469 492.859375 956.4375 492.902344 958.269531 492.992188 C 960.097656 493.082031 961.925781 493.21875 963.75 493.398438 C 965.574219 493.578125 967.390625 493.800781 969.203125 494.070312 C 971.015625 494.339844 972.820312 494.652344 974.617188 495.011719 C 976.414062 495.367188 978.203125 495.769531 979.980469 496.214844 C 981.757812 496.660156 983.523438 497.148438 985.277344 497.679688 C 987.03125 498.210938 988.769531 498.785156 990.496094 499.402344 C 992.21875 500.019531 993.929688 500.679688 995.621094 501.382812 C 997.3125 502.082031 998.988281 502.824219 1000.644531 503.609375 C 1002.300781 504.390625 1003.9375 505.214844 1005.554688 506.078125 C 1007.171875 506.941406 1008.765625 507.847656 1010.335938 508.789062 C 1011.90625 509.730469 1013.453125 510.710938 1014.976562 511.726562 C 1016.5 512.746094 1018 513.800781 1019.472656 514.890625 C 1020.941406 515.984375 1022.386719 517.109375 1023.804688 518.273438 C 1025.21875 519.4375 1026.605469 520.632812 1027.964844 521.863281 C 1029.324219 523.09375 1030.648438 524.355469 1031.945312 525.652344 C 1033.242188 526.949219 1034.503906 528.273438 1035.734375 529.632812 C 1036.964844 530.988281 1038.160156 532.378906 1039.324219 533.792969 C 1040.484375 535.210938 1041.613281 536.652344 1042.703125 538.125 C 1043.796875 539.597656 1044.851562 541.09375 1045.867188 542.617188 C 1046.886719 544.140625 1047.867188 545.691406 1048.808594 547.261719 C 1049.75 548.832031 1050.652344 550.425781 1051.519531 552.042969 C 1052.382812 553.660156 1053.203125 555.296875 1053.988281 556.953125 C 1054.773438 558.609375 1055.515625 560.28125 1056.214844 561.976562 C 1056.917969 563.667969 1057.574219 565.378906 1058.191406 567.101562 C 1058.808594 568.828125 1059.386719 570.566406 1059.917969 572.320312 C 1060.449219 574.074219 1060.9375 575.839844 1061.382812 577.617188 C 1061.828125 579.394531 1062.230469 581.183594 1062.585938 582.980469 C 1062.945312 584.777344 1063.257812 586.582031 1063.527344 588.394531 C 1063.796875 590.207031 1064.019531 592.023438 1064.199219 593.847656 C 1064.378906 595.671875 1064.511719 597.5 1064.601562 599.328125 C 1064.691406 601.160156 1064.738281 602.988281 1064.738281 604.820312 Z M 1064.738281 604.820312 " fill-opacity="1" fill-rule="nonzero"/><path fill="#000000" d="M 719.585938 1316.03125 C 559.542969 1316.03125 409.097656 1253.703125 295.929688 1140.554688 C 182.761719 1027.402344 120.453125 876.941406 120.453125 716.914062 C 120.453125 556.890625 182.777344 406.425781 295.929688 293.257812 C 409.097656 180.089844 559.542969 117.78125 719.585938 117.78125 C 879.628906 117.78125 1030.074219 180.109375 1143.242188 293.257812 C 1256.410156 406.425781 1318.71875 556.871094 1318.71875 716.914062 C 1318.71875 876.957031 1256.390625 1027.402344 1143.242188 1140.570312 C 1030.074219 1253.738281 879.628906 1316.046875 719.585938 1316.046875 Z M 719.585938 192.003906 C 579.386719 192.003906 447.578125 246.605469 348.4375 345.75 C 249.292969 444.871094 194.691406 576.695312 194.691406 716.898438 C 194.691406 857.097656 249.292969 988.902344 348.4375 1088.046875 C 447.578125 1187.1875 579.382812 1241.789062 719.585938 1241.789062 C 859.785156 1241.789062 991.589844 1187.1875 1090.734375 1088.046875 C 1189.875 988.902344 1244.476562 857.097656 1244.476562 716.898438 C 1244.476562 576.695312 1189.875 444.890625 1090.734375 345.75 C 991.589844 246.605469 859.785156 192.003906 719.585938 192.003906 Z M 719.585938 192.003906 " fill-opacity="1" fill-rule="nonzero"/></svg>